<svg width="152" height="40" viewBox="0 0 152 40" fill="none" xmlns="http://www.w3.org/2000/svg">
<g clip-path="url(#clip0_1_2)">
<rect width="152" height="40" fill="white"/>
<g filter="url(#filter0_d_1_2)">
<path d="M4.8 34V8.24H12.32V17.84H21.2V8.24H28.72V34H21.2V24.4H12.32V34H4.8ZM37.7391 34.4C36.1124 34.4 34.5791 34.28 33.1391 34.04C31.7257 33.8267 30.6057 33.5467 29.7791 33.2V27.8C30.7124 28.2267 31.8191 28.56 33.0991 28.8C34.4057 29.04 35.5124 29.16 36.4191 29.16C37.3791 29.16 38.0991 29.1333 38.5791 29.08C39.0857 29.0267 39.3391 28.8 39.3391 28.4C39.3391 27.9467 38.8991 27.6 38.0191 27.36C37.1391 27.12 36.0324 26.7733 34.6991 26.32C32.9657 25.7067 31.6724 24.9867 30.8191 24.16C29.9657 23.3333 29.5391 22.1333 29.5391 20.56C29.5391 18.6667 30.2857 17.2133 31.7791 16.2C33.2724 15.16 35.6191 14.64 38.8191 14.64C40.0457 14.64 41.3124 14.7333 42.6191 14.92C43.9257 15.1067 44.9524 15.32 45.6991 15.56V20.84C44.8991 20.4933 44.0191 20.24 43.0591 20.08C42.1257 19.92 41.2724 19.84 40.4991 19.84C39.6457 19.84 38.8857 19.88 38.2191 19.96C37.5524 20.04 37.2191 20.2667 37.2191 20.64C37.2191 21.0667 37.5924 21.3733 38.3391 21.56C39.1124 21.7467 40.1391 22.04 41.4191 22.44C42.8591 22.8667 43.9791 23.3333 44.7791 23.84C45.6057 24.3467 46.1791 24.96 46.4991 25.68C46.8457 26.4 47.0191 27.2933 47.0191 28.36C47.0191 30.28 46.2324 31.7733 44.6591 32.84C43.1124 33.88 40.8057 34.4 37.7391 34.4ZM47.8313 34V8.24H55.3513V17.84H64.2313V8.24H71.7513V34H64.2313V24.4H55.3513V34H47.8313ZM83.6503 34.4C79.8636 34.4 77.0636 33.56 75.2503 31.88C73.4636 30.2 72.5703 27.7467 72.5703 24.52C72.5703 21.32 73.477 18.88 75.2903 17.2C77.1036 15.4933 79.8903 14.64 83.6503 14.64C87.437 14.64 90.237 15.4933 92.0503 17.2C93.8903 18.88 94.8103 21.32 94.8103 24.52C94.8103 27.7467 93.9036 30.2 92.0903 31.88C90.277 33.56 87.4636 34.4 83.6503 34.4ZM83.6503 28.92C84.877 28.92 85.757 28.5733 86.2903 27.88C86.8503 27.1867 87.1303 26.0667 87.1303 24.52C87.1303 23 86.8503 21.8933 86.2903 21.2C85.757 20.48 84.877 20.12 83.6503 20.12C82.4503 20.12 81.5836 20.48 81.0503 21.2C80.517 21.8933 80.2503 23 80.2503 24.52C80.2503 26.0667 80.517 27.1867 81.0503 27.88C81.5836 28.5733 82.4503 28.92 83.6503 28.92ZM95.6281 34V15.04H102.588L102.788 16.56C103.615 16 104.535 15.5467 105.548 15.2C106.588 14.8267 107.721 14.64 108.948 14.64C110.175 14.64 111.135 14.8133 111.828 15.16C112.521 15.5067 113.081 16.0133 113.508 16.68C114.361 16.0667 115.321 15.5733 116.388 15.2C117.481 14.8267 118.761 14.64 120.228 14.64C122.441 14.64 124.068 15.2267 125.108 16.4C126.148 17.5467 126.668 19.3067 126.668 21.68V34H119.268V22.56C119.268 21.7067 119.095 21.1067 118.748 20.76C118.401 20.3867 117.828 20.2 117.028 20.2C115.988 20.2 115.135 20.5733 114.468 21.32C114.521 21.6667 114.548 22 114.548 22.32C114.548 22.6133 114.548 22.9467 114.548 23.32V34H107.588V22.44C107.588 21.6667 107.455 21.1067 107.188 20.76C106.921 20.3867 106.415 20.2 105.668 20.2C105.161 20.2 104.668 20.3333 104.188 20.6C103.708 20.8667 103.281 21.1867 102.908 21.56V34H95.6281ZM138.287 34.4C136.074 34.4 134.114 34.04 132.407 33.32C130.727 32.5733 129.407 31.4667 128.447 30C127.514 28.5333 127.047 26.72 127.047 24.56C127.047 21.5467 127.9 19.1467 129.607 17.36C131.314 15.5467 133.86 14.64 137.247 14.64C140.34 14.64 142.754 15.4267 144.487 17C146.247 18.5733 147.127 20.72 147.127 23.44V26.76H133.967C134.314 27.7733 134.994 28.4933 136.007 28.92C137.02 29.3467 138.394 29.56 140.127 29.56C141.22 29.56 142.314 29.4667 143.407 29.28C144.527 29.0667 145.42 28.8267 146.087 28.56V33.08C144.22 33.96 141.62 34.4 138.287 34.4ZM133.967 22.68H140.647V22C140.647 21.2533 140.407 20.64 139.927 20.16C139.474 19.68 138.66 19.44 137.487 19.44C136.18 19.44 135.26 19.72 134.727 20.28C134.22 20.8133 133.967 21.6133 133.967 22.68Z" fill="#0D2041"/>
</g>
</g>
<defs>
<filter id="filter0_d_1_2" x="3.8" y="7.23999" width="146.327" height="30.16" filterUnits="userSpaceOnUse" color-interpolation-filters="sRGB">
<feFlood flood-opacity="0" result="BackgroundImageFix"/>
<feColorMatrix in="SourceAlpha" type="matrix" values="0 0 0 0 0 0 0 0 0 0 0 0 0 0 0 0 0 0 127 0" result="hardAlpha"/>
<feOffset dx="1" dy="1"/>
<feGaussianBlur stdDeviation="1"/>
<feComposite in2="hardAlpha" operator="out"/>
<feColorMatrix type="matrix" values="0 0 0 0 0 0 0 0 0 0 0 0 0 0 0 0 0 0 0.25 0"/>
<feBlend mode="normal" in2="BackgroundImageFix" result="effect1_dropShadow_1_2"/>
<feBlend mode="normal" in="SourceGraphic" in2="effect1_dropShadow_1_2" result="shape"/>
</filter>
<clipPath id="clip0_1_2">
<rect width="152" height="40" fill="white"/>
</clipPath>
</defs>
</svg>
